PathFileType	4	(X/Y/Z)	C:/Users/beibeiliu/ov580/test_trc/User3\sequence.21_training_dense_right.trc
DataRate	CameraRate	NumFrames	NumMarkers	Units	OrigDataRate	OrigDataStartFrame	OrigNumFrames
120	120	8	19	mm	120	36	71
Frame#	Time	ThumbCMC			ThumbMCP			ThumbIP			ThumbTip			IndexMCP			IndexPIP			IndexTip			MiddleMCP			MiddlePIP			MiddleTip			RingMCP			RingPIP			RingTip			PinkyMCP			PinkyPIP			PinkyTip			BackHand1			BackHand2			BackHand3	
		X0	Y0	Z0	X1	Y1	Z1	X2	Y2	Z2	X3	Y3	Z3	X4	Y4	Z4	X5	Y5	Z5	X6	Y6	Z6	X7	Y7	Z7	X8	Y8	Z8	X9	Y9	Z9	X10	Y10	Z10	X11	Y11	Z11	X12	Y12	Z12	X13	Y13	Z13	X14	Y14	Z14	X15	Y15	Z15	X16	Y16	Z16	X17	Y17	Z17	X18	Y18	Z18	
35	0.291667	161.965	72.8579	29.7694	129.823	81.6582	10.0062	106.17	85.2967	-3.45447	85.9388	75.41	-13.8087	133.555	45.2957	-41.7907	108.744	43.8663	-51.0456	81.4462	51.5137	-53.3204	113.332	34.0226	-22.1103	94.9996	47.4787	0.651097	124.341	48.619	26.6212	113.921	19.781	-2.02881	103.724	39.0363	22.0598	135.83	39.7244	36.7359	112.806	12.6482	10.3166	108.242	26.0037	30.0357	136.624	28.7059	43.8635	170.102	12.0552	10.1227	185.787	15.7172	40.743	182.593	41.7132	14.3804	
36	0.3	168.383	72.023	25.5289	143.79	87.2452	11.2555	119.12	96.1848	-10.8537	98.8485	95.6142	-19.7531	136.27	47.369	-39.9637	113.943	58.2446	-55.6892	88.4307	67.821	-55.1937	115.814	48.9141	-24.3968	99.7186	65.1594	-3.66102	131.26	62.3675	23.9782	110.47	35.1863	-4.3954	104.617	54.5564	20.5676	134.597	49.223	32.9386	106.526	23.0685	10.3748	106.38	44.0676	33.6302	129.97	40.5397	43.6354	158.69	11.8805	12.8213	174.41	11.7582	37.3028	182.49	37.2357	17.8015	
37	0.308333	176.901	66.609	28.8827	157.914	87.8362	7.33556	136.718	99.7119	-17.0587	116.492	101.743	-27.9739	144.756	47.0399	-40.2271	124.115	57.769	-58.0215	104.413	79.682	-64.9606	121.195	50.7601	-27.0895	108.648	72.7369	-7.43692	136.21	62.4152	20.0016	112.405	41.5187	-8.59924	110.52	64.4325	15.2937	136.791	55.3495	29.0512	104.113	34.395	7.86062	108.976	54.4129	28.147	134.254	43.6516	39.4781	154.054	7.48214	15.3714	165.251	4.65449	41.1339	180.126	29.3185	14.8487	
38	0.316667	186.881	60.2357	28.5424	171.686	79.976	3.5992	155.74	92.0266	-22.8389	138.531	97.7995	-34.7601	155.857	39.8729	-45.1807	141.336	54.2235	-65.4093	122.68	75.6287	-71.5396	131.912	44.6966	-30.0589	124.601	73.8538	-17.6802	149.342	62.6466	14.4088	121.827	44.736	-14.3744	117.245	65.0772	5.32588	144.429	54.6006	24.2699	112.563	34.3053	1.60765	112.607	55.969	18.3791	135.83	46.255	34.3668	155.07	5.69145	17.2395	166.196	4.04402	43.1007	185.185	20.1214	18.7522	
39	0.325	199.993	56.8721	27.9475	185.203	69.4622	-3.03263	174.042	77.6196	-27.7898	160.255	84.1632	-43.4348	181.861	29.1224	-41.6974	170.113	40.0071	-68.852	152.916	62.3464	-81.3343	154.191	37.9983	-38.3158	142.182	65.9993	-24.4996	160.09	54.1314	8.95795	135.92	36.2789	-20.7676	134.375	60.2148	-3.89159	156.895	48.0404	18.8269	129.589	29.4309	-7.85102	127.574	53.0141	8.91242	146.809	40.1974	29.6597	163.634	-1.68603	17.8674	170.706	0.175248	49.5211	197.572	14.6927	22.4187	
40	0.333333	211.523	52.5937	27.3239	201.006	63.6827	-1.54751	195.438	70.9191	-30.0205	183.245	69.5082	-50.893	208.523	19.1464	-40.3964	197.36	26.5163	-68.069	180.576	48.0984	-86.0398	177.043	23.2948	-39.4296	165.008	52.6849	-36.7887	175.321	48.9916	3.26298	159.4	21.0035	-24.3148	151.864	49.2221	-14.2734	166.692	42.4982	14.9329	145.658	17.8171	-13.9118	142.407	43.0635	-0.433871	156.917	35.0001	24.4661	183.966	-5.73792	18.4478	185.004	-3.49431	50.5518	209.51	12.485	29.193	
41	0.341667	221.267	53.2682	30.5141	216.427	64.7867	0.015616	213.155	64.5409	-31.4894	204.539	63.0009	-56.0001	236.267	17.9144	-36.1438	228.488	23.0225	-65.7988	215.82	39.1236	-84.8048	205.423	19.436	-42.0664	185.054	43.2131	-40.0542	189.696	42.1667	0.0658537	183.936	15.172	-29.9214	172.126	40.0419	-23.6791	183.65	36.1165	11.5364	170.449	6.50051	-17.6428	164.854	34.993	-8.51954	170.942	29.7844	17.9395	204.433	-9.22432	23.4584	199.219	-2.05226	49.439	228.861	16.705	34.8226	
42	0.35	228.113	57.7581	31.1908	223.89	67.8345	0.852243	225.123	70.3739	-32.2202	219.624	65.8961	-57.3469	253.737	22.7898	-34.0155	250.881	27.5673	-59.742	237.525	40.7841	-81.8102	224.842	19.8133	-40.2628	203.68	40.5533	-43.7368	201.537	45.4661	-2.52275	209.062	15.3614	-28.9498	187.956	37.2267	-25.1104	194.475	40.9223	6.09834	191.576	3.70998	-20.6338	177.327	27.9109	-15.87	185.213	28.1828	15.5868	223.109	-5.03305	25.4821	213.183	-0.117841	50.719	241.56	23.1895	35.5593	
